ply
format ascii 1.0
comment VCGLIB generated
element vertex 8
property float x
property float y
property float z
property float nx
property float ny
property float nz
element face 12
property list uchar int vertex_indices
end_header
-5 -0.05 -5 -12.43864 -0.1243864 -12.43864 
5 -0.05 -5 7.181449 -0.143629 -14.3629 
-5 0.05 -5 -14.3629 0.07181449 -14.3629 
5 0.05 -5 14.3629 0.143629 -7.181449 
-5 -0.05 5 -14.3629 -0.143629 7.181449 
5 -0.05 5 14.3629 -0.07181449 14.3629 
-5 0.05 5 -7.181449 0.143629 14.3629 
5 0.05 5 12.43864 0.1243864 12.43864 
3 2 1 0 
3 1 2 3 
3 4 2 0 
3 2 4 6 
3 1 4 0 
3 4 1 5 
3 6 5 7 
3 5 6 4 
3 3 6 7 
3 6 3 2 
3 5 3 7 
3 3 5 1 
