ply
format ascii 1.0
comment Created by Blender 2.79 (sub 0) - www.blender.org, source file: 'PlaneVerticall.blend'
element vertex 5
property float x
property float y
property float z
property float nx
property float ny
property float nz
element face 4
property list uchar uint vertex_indices
end_header
-20.000000 -10.000000 -20.000000 0.000000 0.000000 1.000000
20.000000 -10.000000 -20.000000 0.000000 0.000000 1.000000
0.000000 10.000000 -20.000000 0.000000 0.000000 1.000000
20.000000 30.000000 -20.000000 -0.000000 0.000000 1.000000
-20.000000 30.000000 -20.000000 0.000000 -0.000000 1.000000
3 0 1 2
3 1 3 2
3 3 4 2
3 4 0 2
